HIERARCHY
ROOT Hips
{
	OFFSET 0.000000 0.000000 0.000000
	CHANNELS 6 Xposition Yposition Zposition Zrotation Yrotation Xrotation 
	JOINT LowerBack
	{
		OFFSET 0.000000 0.000000 0.000000
		CHANNELS 3 Zrotation Yrotation Xrotation
		JOINT Spine
		{
			OFFSET 0.028270 2.035590 -0.193380
			CHANNELS 3 Zrotation Yrotation Xrotation
			JOINT Spine1
			{
				OFFSET 0.056720 2.048850 -0.042750
				CHANNELS 3 Zrotation Yrotation Xrotation
				JOINT Neck
				{
					OFFSET 0.000000 0.000000 0.000000
					CHANNELS 3 Zrotation Yrotation Xrotation
					JOINT Neck1
					{
						OFFSET -0.054170 1.746240 0.172020
						CHANNELS 3 Zrotation Yrotation Xrotation
						JOINT Head
						{
							OFFSET 0.104070 1.761360 -0.123970
							CHANNELS 3 Zrotation Yrotation Xrotation
							End Site
							{
								OFFSET 0.000000 0.000000 0.000000
							}
						}
					}
				}
				JOINT LeftShoulder
				{
					OFFSET 0.000000 0.000000 0.000000
					CHANNELS 3 Zrotation Yrotation Xrotation
					JOINT LeftArm
					{
						OFFSET 3.362410 1.200890 -0.311210
						CHANNELS 3 Zrotation Yrotation Xrotation
						JOINT LeftForeArm
						{
							OFFSET 4.983000 -0.000000 -0.000000
							CHANNELS 3 Zrotation Yrotation Xrotation
							JOINT LeftHand
							{
								OFFSET 3.483560 -0.000000 -0.000000
								CHANNELS 3 Zrotation Yrotation Xrotation
								JOINT LeftFingerBase
								{
									OFFSET 0.000000 0.000000 0.000000
									CHANNELS 3 Zrotation Yrotation Xrotation
									JOINT LeftHandIndex1
									{
										OFFSET 0.715260 -0.000000 -0.000000
										CHANNELS 3 Zrotation Yrotation Xrotation
										End Site
										{
											OFFSET 0.000000 0.000000 0.000000
										}
									}
								}
								JOINT LThumb
								{
									OFFSET 0.000000 0.000000 0.000000
									CHANNELS 3 Zrotation Yrotation Xrotation
									End Site
									{
										OFFSET 0.000000 0.000000 0.000000
									}
								}
							}
						}
					}
				}
				JOINT RightShoulder
				{
					OFFSET 0.000000 0.000000 0.000000
					CHANNELS 3 Zrotation Yrotation Xrotation
					JOINT RightArm
					{
						OFFSET -3.136600 1.374050 -0.404650
						CHANNELS 3 Zrotation Yrotation Xrotation
						JOINT RightForeArm
						{
							OFFSET -5.241900 -0.000000 -0.000000
							CHANNELS 3 Zrotation Yrotation Xrotation
							JOINT RightHand
							{
								OFFSET -3.444170 -0.000000 -0.000000
								CHANNELS 3 Zrotation Yrotation Xrotation
								JOINT RightFingerBase
								{
									OFFSET 0.000000 0.000000 0.000000
									CHANNELS 3 Zrotation Yrotation Xrotation
									JOINT RightHandIndex1
									{
										OFFSET -0.622530 -0.000000 -0.000000
										CHANNELS 3 Zrotation Yrotation Xrotation
										End Site
										{
											OFFSET 0.000000 0.000000 0.000000
										}
									}
								}
								JOINT RThumb
								{
									OFFSET 0.000000 0.000000 0.000000
									CHANNELS 3 Zrotation Yrotation Xrotation
									End Site
									{
										OFFSET 0.000000 0.000000 0.000000
									}
								}
							}
						}
					}
				}
			}
		}
	}
}
}
MOTION
Frames: 15
Frame Time: 0.008333
13.728085 16.923781 1.216293 13.731287 -89.442824 16.016535 1.864188 -1.914475 -6.404312 -0.025880 -2.262344 -4.096287 -4.927214 -2.370753 0.298957 9.468312 -12.221670 -12.004648 -1.706426 -0.049890 -1.395019 0.000000 0.000000 0.000000 4.039970 7.193108 2.330400 -67.019540 2.328634 -1.165741 -1.139546 -61.085066 -0.062542 23.171204 -12.164782 -2.592645 -0.253490 0.311111 -0.000000 0.000000 0.000000 0.000000 0.000000 0.000000 0.000000 6.557642 -7.579213 1.948003 67.306485 11.120169 -4.222162 1.232968 54.599703 -0.035256 -13.228570 14.313833 -1.733282 0.176455 -0.366677 -0.000000 0.000000 0.000000 0.000000 0.000000 0.000000 0.000000 
13.701541 16.853403 1.215750 17.405352 -89.450642 13.094214 1.844891 -1.929478 -6.501777 -0.040953 -2.287894 -4.126144 -4.983652 -2.404429 0.313091 9.667191 -12.259381 -12.213497 -1.739754 -0.049061 -1.466663 0.000000 0.000000 0.000000 3.812611 7.246603 2.402891 -68.304253 2.733834 -1.066768 -1.187493 -59.555033 -0.058690 22.967433 -12.150263 -2.562565 -0.243317 0.297220 -0.000000 0.000000 0.000000 0.000000 0.000000 0.000000 0.000000 6.996363 -7.653309 2.023835 68.728414 10.723102 -3.934295 1.310847 53.037866 -0.032125 -12.818555 14.097915 -1.652913 0.172049 -0.355000 0.000000 0.000000 0.000000 0.000000 0.000000 0.000000 0.000000 
13.675517 16.773355 1.214214 21.701146 -89.407006 9.539117 1.812598 -1.963404 -6.576985 -0.056546 -2.330494 -4.151044 -5.034429 -2.455402 0.329376 9.871402 -12.298086 -12.428107 -1.769733 -0.047817 -1.541044 0.000000 0.000000 0.000000 3.607018 7.296084 2.481599 -69.528758 3.126085 -1.083713 -1.231096 -58.015354 -0.055277 22.766784 -12.125490 -2.531086 -0.233271 0.284195 -0.000000 0.000000 0.000000 0.000000 0.000000 0.000000 0.000000 7.434057 -7.740550 2.104844 70.059436 10.339425 -3.734004 1.382783 51.452571 -0.029447 -12.440377 13.840803 -1.573751 0.167747 -0.343538 -0.000000 0.000000 0.000000 0.000000 0.000000 0.000000 0.000000 
13.650271 16.683112 1.211898 26.309809 -89.303183 5.659915 1.763212 -2.017889 -6.630745 -0.073998 -2.390989 -4.172103 -5.080089 -2.524321 0.342966 10.079698 -12.333035 -12.644505 -1.797774 -0.046338 -1.617054 0.000000 0.000000 0.000000 3.417930 7.325524 2.565919 -70.684128 3.526130 -1.207933 -1.268203 -56.519618 -0.052343 22.582758 -12.092459 -2.500206 -0.223550 0.272157 -0.000000 0.000000 0.000000 0.000000 0.000000 0.000000 0.000000 7.870131 -7.834399 2.191444 71.289755 9.954641 -3.606949 1.447056 49.891993 -0.027182 -12.092726 13.557655 -1.497391 0.163556 -0.332537 -0.000000 0.000000 0.000000 0.000000 0.000000 0.000000 0.000000 
13.625536 16.582116 1.209138 30.832267 -89.140966 1.862685 1.692798 -2.090626 -6.671905 -0.094856 -2.466683 -4.191250 -5.121299 -2.608325 0.353043 10.292238 -12.367663 -12.861828 -1.824722 -0.044720 -1.694299 0.000000 0.000000 0.000000 3.241655 7.333079 2.653750 -71.763437 3.942156 -1.414558 -1.297357 -55.108845 -0.049883 22.433344 -12.054858 -2.472720 -0.214360 0.261139 -0.000000 0.000000 0.000000 0.000000 0.000000 0.000000 0.000000 8.306570 -7.936135 2.282818 72.408033 9.561255 -3.529621 1.503302 48.397038 -0.025259 -11.777316 13.270381 -1.426531 0.159572 -0.322195 -0.000000 0.000000 0.000000 0.000000 0.000000 0.000000 0.000000 
13.601206 16.469947 1.206323 34.857966 -88.930636 -1.436416 1.604006 -2.176196 -6.710302 -0.119496 -2.552683 -4.211633 -5.159673 -2.702471 0.355112 10.506971 -12.397915 -13.075569 -1.852225 -0.043202 -1.771236 0.000000 0.000000 0.000000 3.070815 7.304351 2.743448 -72.759987 4.399504 -1.686875 -1.316697 -53.831587 -0.047888 22.335844 -12.014248 -2.450727 -0.205803 0.251086 -0.000000 0.000000 0.000000 0.000000 0.000000 0.000000 0.000000 8.743242 -8.037582 2.379146 73.404589 9.143055 -3.484149 1.551303 47.009519 -0.023628 -11.498753 13.002185 -1.363870 0.155892 -0.312718 0.000000 0.000000 0.000000 0.000000 0.000000 0.000000 0.000000 
13.576739 16.346197 1.203746 38.149003 -88.684239 -3.986935 1.503563 -2.268470 -6.759001 -0.146800 -2.644136 -4.235123 -5.195940 -2.801878 0.352647 10.724861 -12.432984 -13.288465 -1.880172 -0.041748 -1.848430 0.000000 0.000000 0.000000 2.902781 7.255885 2.832331 -73.670647 4.886098 -1.984447 -1.326244 -52.703587 -0.046325 22.308688 -11.976407 -2.437524 -0.198047 0.241939 -0.000000 0.000000 0.000000 0.000000 0.000000 0.000000 0.000000 9.182122 -8.146028 2.477956 74.270097 8.702598 -3.437221 1.592054 45.754984 -0.022229 -11.269327 12.775975 -1.312704 0.152730 -0.304207 0.000000 0.000000 0.000000 0.000000 0.000000 0.000000 0.000000 
13.551875 16.210720 1.201717 40.609722 -88.411884 -5.685798 1.401771 -2.362292 -6.828807 -0.174776 -2.737503 -4.264298 -5.231356 -2.903076 0.344657 10.943880 -12.472097 -13.499115 -1.909315 -0.040474 -1.925240 0.000000 0.000000 0.000000 2.732369 7.186994 2.918885 -74.493243 5.406998 -2.282919 -1.325827 -51.744928 -0.045141 22.365239 -11.946635 -2.435510 -0.191140 0.233602 -0.000000 0.000000 0.000000 0.000000 0.000000 0.000000 0.000000 9.621799 -8.258305 2.578208 75.000817 8.233453 -3.369069 1.626178 44.653986 -0.021043 -11.101399 12.611078 -1.275832 0.150227 -0.296743 0.000000 0.000000 0.000000 0.000000 0.000000 0.000000 0.000000 
13.526311 16.063546 1.200456 42.300539 -88.120880 -6.586966 1.308020 -2.453944 -6.928775 -0.201290 -2.830491 -4.300963 -5.266390 -3.003838 0.331899 11.161681 -12.515302 -13.707504 -1.939797 -0.039414 -2.001485 0.000000 0.000000 0.000000 2.555895 7.103680 3.001940 -75.227735 5.955052 -2.558427 -1.316198 -50.957783 -0.044285 22.513976 -11.931629 -2.446887 -0.185100 0.225983 -0.000000 0.000000 0.000000 0.000000 0.000000 0.000000 0.000000 10.059270 -8.373213 2.678450 75.597223 7.735865 -3.263359 1.654458 43.712916 -0.020054 -11.008346 12.520894 -1.255454 0.148512 -0.290333 0.000000 0.000000 0.000000 0.000000 0.000000 0.000000 0.000000 
13.499808 15.905002 1.200064 43.366670 -87.816594 -6.831684 1.227719 -2.541034 -7.064828 -0.224864 -2.921576 -4.345835 -5.300689 -3.102675 0.316867 11.376071 -12.564091 -13.915469 -1.971116 -0.038503 -2.077635 0.000000 0.000000 0.000000 2.372396 7.019114 3.080628 -75.876418 6.509566 -2.789396 -1.298922 -50.326559 -0.043683 22.757223 -11.940257 -2.473653 -0.179913 0.219014 -0.000000 0.000000 0.000000 0.000000 0.000000 0.000000 0.000000 10.490516 -8.491836 2.776982 76.065169 7.218563 -3.108813 1.677750 42.922534 -0.019250 -11.001976 12.512583 -1.253270 0.147675 -0.284918 0.000000 0.000000 0.000000 0.000000 0.000000 0.000000 0.000000 
13.472213 15.735721 1.200618 43.956593 -87.504085 -6.568726 1.165306 -2.621532 -7.238091 -0.244556 -3.009266 -4.400136 -5.334489 -3.198170 0.296230 11.581763 -12.606471 -14.119015 -2.004202 -0.037901 -2.152547 0.000000 0.000000 0.000000 2.177165 6.924554 3.155635 -76.442089 7.070492 -2.980772 -1.274777 -49.844608 -0.043293 23.089931 -11.977891 -2.516611 -0.175428 0.212620 -0.000000 0.000000 0.000000 0.000000 0.000000 0.000000 0.000000 10.909408 -8.600421 2.874457 76.415872 6.678529 -2.918283 1.696001 42.270673 -0.018643 -11.086842 12.584310 -1.269582 0.147665 -0.280434 0.000000 0.000000 0.000000 0.000000 0.000000 0.000000 0.000000 
13.443388 15.556583 1.201959 44.261122 -87.187588 -5.990505 1.118057 -2.694764 -7.446653 -0.260343 -3.092566 -4.461702 -5.365477 -3.289251 0.277207 11.778578 -12.650903 -14.325070 -2.036954 -0.037280 -2.228457 0.000000 0.000000 0.000000 1.975629 6.852449 3.226315 -76.930805 7.585391 -3.113061 -1.246534 -49.461314 -0.043046 23.504344 -12.054533 -2.577361 -0.171607 0.206796 -0.000000 0.000000 0.000000 0.000000 0.000000 0.000000 0.000000 11.311987 -8.708517 2.968411 76.663260 6.147316 -2.685656 1.710265 41.718507 -0.018218 -11.268429 12.728754 -1.304588 0.148503 -0.276702 0.000000 0.000000 0.000000 0.000000 0.000000 0.000000 0.000000 
13.413441 15.368941 1.203977 44.400939 -86.871453 -5.226311 1.084623 -2.759858 -7.683193 -0.272762 -3.170204 -4.530402 -5.393760 -3.374690 0.254506 11.961678 -12.680016 -14.528082 -2.070898 -0.036861 -2.303993 0.000000 0.000000 0.000000 1.765178 6.787290 3.294515 -77.347328 8.052919 -3.210610 -1.214770 -49.161685 -0.042922 23.984814 -12.171009 -2.654905 -0.168199 0.201501 -0.000000 0.000000 0.000000 0.000000 0.000000 0.000000 0.000000 11.694170 -8.796552 3.060796 76.825237 5.625635 -2.443494 1.719927 41.240692 -0.017992 -11.537664 12.930309 -1.356293 0.149962 -0.273620 0.000000 0.000000 0.000000 0.000000 0.000000 0.000000 0.000000 
13.382395 15.174358 1.206451 44.488944 -86.559617 -4.396948 1.059968 -2.816924 -7.938291 -0.282786 -3.241394 -4.603821 -5.417965 -3.453643 0.229776 12.129930 -12.691523 -14.729530 -2.105644 -0.036550 -2.379965 0.000000 0.000000 0.000000 1.549019 6.739034 3.361014 -77.697582 8.439491 -3.281240 -1.181016 -48.906323 -0.042910 24.515898 -12.329100 -2.748647 -0.165046 0.196743 -0.000000 0.000000 0.000000 0.000000 0.000000 0.000000 0.000000 12.054481 -8.862302 3.151528 76.919395 5.137927 -2.208132 1.725182 40.797495 -0.017962 -11.883827 13.170617 -1.422397 0.151864 -0.271039 0.000000 0.000000 0.000000 0.000000 0.000000 0.000000 0.000000 
13.350363 14.974639 1.209127 44.603013 -86.255017 -3.590467 1.038989 -2.866467 -8.200502 -0.291670 -3.305629 -4.679755 -5.437473 -3.525558 0.201924 12.282533 -12.678914 -14.928297 -2.141793 -0.036386 -2.456459 0.000000 0.000000 0.000000 1.329596 6.706093 3.427072 -77.986947 8.723052 -3.341737 -1.146089 -48.665547 -0.043019 25.080786 -12.525981 -2.856885 -0.161959 0.192533 -0.000000 0.000000 0.000000 0.000000 0.000000 0.000000 0.000000 12.394267 -8.898855 3.241486 76.962966 4.703475 -2.002116 1.725870 40.354830 -0.018135 -12.288870 13.428667 -1.499202 0.153957 -0.268856 0.000000 0.000000 0.000000 0.000000 0.000000 0.000000 0.000000 
